<?xml version="1.0" encoding="utf-8"?>
<!-- Generator: Adobe Illustrator 16.0.0, SVG Export Plug-In . SVG Version: 6.00 Build 0)  -->
<!DOCTYPE svg PUBLIC "-//W3C//DTD SVG 1.1//EN" "http://www.w3.org/Graphics/SVG/1.1/DTD/svg11.dtd">
<svg version="1.1" id="Layer_1" xmlns="http://www.w3.org/2000/svg" xmlns:xlink="http://www.w3.org/1999/xlink" x="0px" y="0px"
	 width="841.89px" height="595.28px" viewBox="0 0 841.89 595.28" enable-background="new 0 0 841.89 595.28" xml:space="preserve">
<g>
	<path fill="#747373" d="M406.544,300.116c0-0.296,0.241-0.542,0.543-0.542h4.815c0.298,0,0.544,0.246,0.544,0.542v0.579
		c0,0.295,0.002,0.539,0.003,0.539c0.002,0,0.183-0.165,0.399-0.375c0,0,1.878-1.811,4.882-1.687
		c2.858,0.115,5.503,1.759,5.503,5.438v10.467c0,0.292-0.246,0.534-0.549,0.534h-5.032c-0.297,0-0.541-0.242-0.541-0.534v-7.323
		c0-0.302-0.021-0.793-0.038-1.085c0,0-0.177-2.618-1.97-2.618c-1.053,0-2.443,0.528-2.443,3.092v7.935
		c0,0.292-0.243,0.534-0.542,0.534h-5.032c-0.302,0-0.543-0.242-0.543-0.534V300.116z"/>
</g>
<path fill="#747373" d="M442.863,309.525c0.125-0.831-0.25-0.877-0.594-0.877h-4.572c-0.34,0-0.615,0.229-0.615,0.571
	c-0.125,1.264-1.062,2.35-2.383,2.35c-2.35,0-2.688-2.015-2.688-3.961c0-1.942,0.339-3.987,2.688-3.987
	c0.646,0,1.169,0.187,1.539,0.525c0.406,0.341,0.625,0.869,0.688,1.52c0.029,0.354,0.268,0.537,0.608,0.537h4.577
	c0.342,0,0.673-0.112,0.579-0.858l0,0l0,0c-0.515-4.199-4.015-6.172-8.11-6.172c-4.829,0-8.688,3.369-8.688,8.436
	c0,5.065,3.859,8.407,8.688,8.407C438.801,316.016,442.154,313.688,442.863,309.525L442.863,309.525L442.863,309.525z"/>
<g>
	<path fill="#747373" d="M446.475,303.891c0-0.301-0.24-0.542-0.549-0.542h-1.407c-0.31,0-0.553-0.246-0.553-0.547v-2.686
		c0-0.296,0.243-0.542,0.553-0.542h1.407c0.309,0,0.561-0.243,0.562-0.543c0,0,0.08-2.793,1.25-3.97
		c1.333-1.33,2.812-1.848,5.281-1.916c2.812-0.084,2.812-0.092,2.818,0.774v2.329c0,0.301-0.237,0.586-0.537,0.633
		c0,0-0.449,0.074-0.938,0.074c-1.491,0-1.983,1.134-1.892,2.618h2.674c0.297,0,0.54,0.246,0.54,0.542v2.686
		c0,0.301-0.243,0.547-0.54,0.547h-2c-0.309,0-0.553,0.241-0.553,0.542v11.188c0,0.292-0.238,0.534-0.541,0.534h-5.031
		c-0.303,0-0.545-0.242-0.545-0.534V303.891z"/>
</g>
<path fill="#009FE3" d="M402.861,294.868c0,1.692-1.367,3.061-3.059,3.061s-3.058-1.368-3.058-3.061
	c0-1.689,1.366-3.057,3.058-3.057S402.861,293.179,402.861,294.868z"/>
<g>
	<path fill="#747373" d="M402.985,323.266c0,0.304-0.24,0.546-0.542,0.546h-5.034c-0.3,0-0.541-0.242-0.541-0.546v-5.032
		c0-0.298,0.241-0.54,0.541-0.54h5.034c0.302,0,0.542,0.242,0.542,0.54V323.266z"/>
</g>
<g>
	<path fill="#747373" d="M397.606,299.566c-0.298,0-0.545,0-0.545,0s-0.242-0.001-0.543-0.001h-2.604
		c-0.302,0-0.543,0.241-0.543,0.542v5.033c0,0.299,0.241,0.54,0.543,0.54h2.533c0.299,0,0.543,0.245,0.543,0.55v8.831
		c0,0.297,0.242,0.547,0.543,0.547h5.032c0.302,0,0.543-0.25,0.543-0.547v-14.952c0-0.301-0.241-0.543-0.543-0.543H397.606z"/>
</g>
<g>
	<path fill="#747373" d="M391.517,299.526c0-0.301-0.208-0.411-0.458-0.254l-4.825,3.072c-0.251,0.164-0.251,0.422,0,0.582
		l4.825,3.067c0.251,0.163,0.458,0.052,0.458-0.252V299.526z"/>
</g>
</svg>
